<svg width="108" height="20" viewBox="0 0 108 20" fill="none" xmlns="http://www.w3.org/2000/svg">
<path fill-rule="evenodd" clip-rule="evenodd" d="M10.5 20C16.0229 20 20.5 15.5228 20.5 9.99999C20.5 4.47716 16.0229 0 10.5 0C4.97714 0 0.5 4.47716 0.5 9.99999C0.5 15.5228 4.97714 20 10.5 20ZM13.6197 4.65842C13.7715 4.11903 13.2481 3.80007 12.77 4.14065L6.09656 8.89479C5.57811 9.26414 5.65966 9.99999 6.21906 9.99999H7.97636V9.98639H11.4013L8.61061 10.971L7.38036 15.3416C7.22851 15.881 7.75191 16.1999 8.23001 15.8593L14.9035 11.1052C15.4219 10.7359 15.3403 9.99999 14.781 9.99999H12.1161L13.6197 4.65842Z" fill="#4747FF"/>
<path d="M28.3165 16.18C26.4925 16.18 24.9145 15.496 23.5825 14.128L25.5265 11.752C26.4625 12.7 27.4345 13.174 28.4425 13.174C28.8145 13.174 29.0905 13.096 29.2705 12.94C29.4505 12.772 29.5405 12.574 29.5405 12.346C29.5405 12.082 29.4325 11.866 29.2165 11.698C29.0125 11.53 28.5805 11.338 27.9205 11.122C27.3445 10.93 26.8585 10.738 26.4625 10.546C26.0785 10.342 25.6825 10.084 25.2745 9.772C24.8665 9.448 24.5545 9.046 24.3385 8.566C24.1345 8.086 24.0325 7.534 24.0325 6.91C24.0325 5.818 24.4345 4.906 25.2385 4.174C26.0545 3.442 27.0745 3.064 28.2985 3.04C29.9905 3.004 31.4965 3.574 32.8165 4.75L30.9265 7.18C29.9305 6.412 29.1205 6.028 28.4965 6.028C27.8965 6.028 27.5965 6.28 27.5965 6.784C27.5965 7.012 27.7045 7.222 27.9205 7.414C28.1365 7.606 28.5505 7.822 29.1625 8.062C30.4945 8.566 31.3705 8.962 31.7905 9.25C32.6905 9.862 33.1405 10.762 33.1405 11.95C33.1405 12.718 32.9905 13.39 32.6905 13.966C32.4025 14.53 32.0125 14.968 31.5205 15.28C31.0285 15.592 30.5125 15.82 29.9725 15.964C29.4445 16.108 28.8925 16.18 28.3165 16.18ZM39.7212 7.18H42.9432V16H39.7212V15.064H39.6672C39.0552 15.808 38.2572 16.18 37.2732 16.18C35.1972 16.18 34.1592 14.902 34.1592 12.346V7.18H37.3632V11.572C37.3632 12.196 37.4532 12.652 37.6332 12.94C37.8132 13.216 38.1072 13.354 38.5152 13.354C38.8752 13.354 39.1632 13.21 39.3792 12.922C39.6072 12.622 39.7212 12.184 39.7212 11.608V7.18ZM50.0965 7C51.2125 7 52.1425 7.432 52.8865 8.296C53.6305 9.148 54.0025 10.246 54.0025 11.59C54.0025 12.946 53.6185 14.05 52.8505 14.902C52.0945 15.754 51.1105 16.18 49.8985 16.18C48.9985 16.18 48.2665 15.862 47.7025 15.226H47.6845V19.564H44.4805V7.18H47.7025V8.08H47.7205C48.3325 7.36 49.1245 7 50.0965 7ZM49.1965 13.372C49.6525 13.372 50.0245 13.21 50.3125 12.886C50.6125 12.55 50.7625 12.118 50.7625 11.59C50.7625 11.074 50.6125 10.654 50.3125 10.33C50.0245 9.994 49.6525 9.826 49.1965 9.826C48.7165 9.826 48.3205 9.994 48.0085 10.33C47.7085 10.654 47.5585 11.074 47.5585 11.59C47.5585 12.13 47.7085 12.562 48.0085 12.886C48.3205 13.21 48.7165 13.372 49.1965 13.372ZM61.0171 7.18H64.2391V16H61.1791V15.172H61.1611C60.6451 15.844 59.8891 16.18 58.8931 16.18C57.6811 16.18 56.6911 15.754 55.9231 14.902C55.1671 14.05 54.7891 12.946 54.7891 11.59C54.7891 10.246 55.1611 9.148 55.9051 8.296C56.6491 7.432 57.5791 7 58.6951 7C59.6191 7 60.3871 7.354 60.9991 8.062H61.0171V7.18ZM59.6131 13.372C60.0451 13.372 60.4111 13.21 60.7111 12.886C61.0111 12.55 61.1611 12.118 61.1611 11.59C61.1611 11.074 61.0111 10.654 60.7111 10.33C60.4111 9.994 60.0451 9.826 59.6131 9.826C59.1571 9.826 58.7791 9.994 58.4791 10.33C58.1911 10.654 58.0471 11.074 58.0471 11.59C58.0471 12.13 58.1911 12.562 58.4791 12.886C58.7671 13.21 59.1451 13.372 59.6131 13.372ZM71.6892 2.752H74.9112V16H71.8512V15.172H71.8332C71.3052 15.844 70.5252 16.18 69.4932 16.18C68.2812 16.18 67.2912 15.754 66.5232 14.902C65.7672 14.05 65.3892 12.946 65.3892 11.59C65.3892 10.246 65.7612 9.148 66.5052 8.296C67.2492 7.432 68.1792 7 69.2952 7C70.2432 7 71.0352 7.36 71.6712 8.08H71.6892V2.752ZM70.1952 13.372C70.6632 13.372 71.0472 13.21 71.3472 12.886C71.6592 12.562 71.8152 12.13 71.8152 11.59C71.8152 11.074 71.6592 10.654 71.3472 10.33C71.0472 9.994 70.6632 9.826 70.1952 9.826C69.7392 9.826 69.3612 9.994 69.0612 10.33C68.7732 10.654 68.6292 11.074 68.6292 11.59C68.6292 12.118 68.7732 12.55 69.0612 12.886C69.3612 13.21 69.7392 13.372 70.1952 13.372ZM82.3042 7.18H85.5262V16H82.4662V15.172H82.4482C81.9322 15.844 81.1762 16.18 80.1802 16.18C78.9682 16.18 77.9782 15.754 77.2102 14.902C76.4542 14.05 76.0762 12.946 76.0762 11.59C76.0762 10.246 76.4482 9.148 77.1922 8.296C77.9362 7.432 78.8662 7 79.9822 7C80.9062 7 81.6742 7.354 82.2862 8.062H82.3042V7.18ZM80.9002 13.372C81.3322 13.372 81.6982 13.21 81.9982 12.886C82.2982 12.55 82.4482 12.118 82.4482 11.59C82.4482 11.074 82.2982 10.654 81.9982 10.33C81.6982 9.994 81.3322 9.826 80.9002 9.826C80.4442 9.826 80.0662 9.994 79.7662 10.33C79.4782 10.654 79.3342 11.074 79.3342 11.59C79.3342 12.13 79.4782 12.562 79.7662 12.886C80.0542 13.21 80.4322 13.372 80.9002 13.372ZM90.0243 16.18C88.6083 16.18 87.4083 15.742 86.4243 14.866L87.8823 12.886C88.6263 13.546 89.3583 13.876 90.0783 13.876C90.5223 13.876 90.7443 13.756 90.7443 13.516C90.7443 13.396 90.6663 13.294 90.5103 13.21C90.3663 13.114 90.0423 12.988 89.5383 12.832C87.6663 12.292 86.7303 11.338 86.7303 9.97C86.7303 9.034 87.0543 8.308 87.7023 7.792C88.3503 7.264 89.1543 7 90.1143 7C91.3623 7 92.5143 7.372 93.5703 8.116L92.0763 10.258C91.5003 9.646 90.8823 9.34 90.2223 9.34C89.8503 9.34 89.6643 9.46 89.6643 9.7C89.6643 9.88 90.0303 10.09 90.7623 10.33C91.8543 10.678 92.6223 11.05 93.0663 11.446C93.5223 11.842 93.7503 12.448 93.7503 13.264C93.7503 14.152 93.4323 14.86 92.7963 15.388C92.1603 15.916 91.2363 16.18 90.0243 16.18ZM100.727 7C101.711 7 102.479 7.276 103.031 7.828C103.583 8.38 103.859 9.328 103.859 10.672V16H100.637V11.446C100.637 10.834 100.541 10.414 100.349 10.186C100.169 9.958 99.8505 9.844 99.3945 9.844C98.5425 9.844 98.1165 10.42 98.1165 11.572V16H94.8945V2.752H98.1165V8.17H98.1345C98.8065 7.39 99.6705 7 100.727 7Z" fill="black"/>
</svg>
